HIERARCHY
ROOT Hips
{
 OFFSET 0.000000 0.000000 0.000000
 CHANNELS 6 Xposition Yposition Zposition Yrotation Xrotation Zrotation
 JOINT Chest
 {
  OFFSET 0.000000 9.585900 0.002600
  CHANNELS 3 Yrotation Xrotation Zrotation
  JOINT Chest2
  {
   OFFSET 0.000000 9.601200 -0.005300
   CHANNELS 3 Yrotation Xrotation Zrotation
   JOINT Chest3
   {
    OFFSET 0.000000 9.561800 0.000000
    CHANNELS 3 Yrotation Xrotation Zrotation
    JOINT Chest4
    {
     OFFSET 0.000000 9.552100 0.000000
     CHANNELS 3 Yrotation Xrotation Zrotation
     JOINT Neck
     {
      OFFSET 0.000000 14.453000 0.000000
      CHANNELS 3 Yrotation Xrotation Zrotation
      JOINT Head
      {
       OFFSET 0.000000 8.936500 -0.011300
       CHANNELS 3 Yrotation Xrotation Zrotation
       End Site
       {
        OFFSET 0.000000 17.073600 -0.006000
       }
      }
     }
     JOINT RightCollar
     {
      OFFSET -2.921100 9.558500 0.000000
      CHANNELS 3 Yrotation Xrotation Zrotation
      JOINT RightShoulder
      {
       OFFSET -13.519700 0.000000 0.000000
       CHANNELS 3 Yrotation Xrotation Zrotation
       JOINT RightElbow
       {
        OFFSET 0.000000 -29.696600 0.000000
        CHANNELS 3 Yrotation Xrotation Zrotation
        JOINT RightWrist
        {
         OFFSET 0.000000 -24.004700 0.000000
         CHANNELS 3 Yrotation Xrotation Zrotation
         End Site
         {
          OFFSET 0.000000 -17.728500 0.000000
         }
        }
       }
      }
     }
     JOINT LeftCollar
     {
      OFFSET 2.921100 9.558500 0.000000
      CHANNELS 3 Yrotation Xrotation Zrotation
      JOINT LeftShoulder
      {
       OFFSET 13.519700 0.000000 0.000000
       CHANNELS 3 Yrotation Xrotation Zrotation
       JOINT LeftElbow
       {
        OFFSET 0.000000 -29.696600 0.000000
        CHANNELS 3 Yrotation Xrotation Zrotation
        JOINT LeftWrist
        {
         OFFSET 0.000000 -24.004700 0.000000
         CHANNELS 3 Yrotation Xrotation Zrotation
         End Site
         {
          OFFSET 0.000000 -17.728500 0.000000
         }
        }
       }
      }
     }
    }
   }
  }
 }
 JOINT RightHip
 {
  OFFSET -7.771700 -0.012900 -0.001300
  CHANNELS 3 Yrotation Xrotation Zrotation
  JOINT RightKnee
  {
   OFFSET 0.000000 -40.869800 0.001200
   CHANNELS 3 Yrotation Xrotation Zrotation
   JOINT RightAnkle
   {
    OFFSET 0.000000 -39.717900 0.002100
    CHANNELS 3 Yrotation Xrotation Zrotation
    JOINT RightToe
    {
     OFFSET 0.000000 -4.965400 11.033500
     CHANNELS 3 Yrotation Xrotation Zrotation
     End Site
     {
      OFFSET 0.000000 -1.423100 5.872300
     }
    }
   }
  }
 }
 JOINT LeftHip
 {
  OFFSET 7.771700 -0.012900 -0.001300
  CHANNELS 3 Yrotation Xrotation Zrotation
  JOINT LeftKnee
  {
   OFFSET 0.000000 -40.869800 0.001200
   CHANNELS 3 Yrotation Xrotation Zrotation
   JOINT LeftAnkle
   {
    OFFSET 0.000000 -39.717900 0.002100
    CHANNELS 3 Yrotation Xrotation Zrotation
    JOINT LeftToe
    {
     OFFSET 0.000000 -4.965400 11.033500
     CHANNELS 3 Yrotation Xrotation Zrotation
     End Site
     {
      OFFSET 0.000000 -1.423100 5.872300
     }
    }
   }
  }
 }
}
MOTION
Frames: 12
Frame Time: 0.008333
3.889749 50.030409 43.606156 173.667254 -32.413702 -6.869883 6.598880 17.700443 6.663149 0.696012 2.181723 0.582759 1.155663 3.571326 0.967190 5.597226 15.410140 4.859981 -2.899402 15.504254 1.449063 -5.929874 -6.924453 3.744997 -2.310574 -1.434197 -3.622401 4.261615 -4.222085 -0.471209 81.894399 -74.043998 -97.591126 4.296803 -1.917295 9.177662 -10.120396 -0.088972 0.106542 5.859394 -4.523787 -1.056997 -120.040071 -69.975797 133.853265 4.118943 9.531224 -61.386899 -0.512981 -48.594343 9.493655 -88.839226 84.387797 -77.371774 -1.205040 -9.631719 -4.016679 -0.148343 0.849340 -0.097658 -11.038202 -52.287539 17.551284 -146.679386 83.764320 -154.361840 -0.381763 -13.070561 7.392082 -0.280103 -0.593393 -0.106873
3.887577 50.032587 43.606108 173.674771 -32.424053 -6.866601 6.593836 17.719351 6.662465 0.695785 2.185805 0.583389 1.157273 3.575264 0.967271 5.591662 15.423100 4.859135 -2.923674 15.482879 1.422135 -6.031198 -6.967520 3.650113 -2.309135 -1.428192 -3.628577 4.226330 -4.208675 -0.548151 83.405742 -73.934729 -99.033063 4.415450 -1.905271 9.928818 -10.130261 -0.087248 0.114194 5.927409 -4.612700 -0.966274 -121.115683 -70.004866 134.598413 4.038734 9.610242 -62.661882 -0.525606 -48.583613 9.491924 -88.917422 84.368865 -77.458154 -1.185205 -9.638495 -4.010857 -0.198628 0.851787 -0.100429 -11.001219 -52.281882 17.512138 -146.790539 83.772321 -154.458457 -0.396627 -13.074635 7.393412 -0.278809 -0.586680 -0.107439
3.886189 50.034095 43.607120 173.678139 -32.431223 -6.868816 6.592635 17.730744 6.666342 0.695604 2.195778 0.586665 1.157592 3.589024 0.972277 5.584459 15.427872 4.856143 -2.947592 15.455805 1.389475 -6.133746 -7.037387 3.548855 -2.303146 -1.431864 -3.638643 4.204346 -4.199780 -0.603998 84.894944 -73.814819 -100.463409 4.513971 -1.915690 10.683596 -10.158521 -0.031254 0.135846 6.004187 -4.755677 -0.892630 -122.212531 -69.999125 135.344263 4.105530 9.624300 -63.730078 -0.542453 -48.576350 9.501071 -88.926221 84.368515 -77.475196 -1.175408 -9.643505 -4.009820 -0.201418 0.857635 -0.101317 -10.971863 -52.280347 17.485852 -146.852620 83.774847 -154.503689 -0.402686 -13.080542 7.392086 -0.278218 -0.579461 -0.105404
3.884320 50.035684 43.607252 173.686380 -32.445756 -6.870956 6.586923 17.750868 6.667902 0.696282 2.199001 0.587327 1.157013 3.591524 0.972416 5.584690 15.498178 4.873730 -3.002468 15.375054 1.323063 -6.206306 -7.122534 3.466049 -2.296367 -1.503010 -3.656923 4.187769 -4.154087 -0.670935 86.462036 -73.712510 -101.979521 4.605199 -1.939928 11.459677 -10.167846 -0.072449 0.141658 6.044859 -4.847409 -0.790638 -123.307679 -69.945775 136.071388 4.318742 9.566583 -64.571675 -0.550000 -48.561564 9.499438 -88.982287 84.356551 -77.532978 -1.152430 -9.652114 -4.015180 -0.198736 0.865296 -0.096756 -10.943489 -52.269665 17.457187 -146.992618 83.783778 -154.631223 -0.423025 -13.088439 7.395468 -0.275887 -0.570026 -0.105262
3.882826 50.036969 43.607177 173.696698 -32.463766 -6.875637 6.584274 17.793732 6.677644 0.696022 2.183757 0.583042 1.160127 3.624391 0.980475 5.580137 15.480998 4.864513 -3.087165 15.350720 1.239543 -6.248196 -7.212061 3.411633 -2.287469 -1.437429 -3.657926 4.157603 -4.166614 -0.759823 88.111373 -73.617035 -103.577601 4.697848 -1.980785 12.248149 -10.173902 -0.081872 0.144586 6.058046 -4.885681 -0.734968 -124.286349 -69.773876 136.668048 4.677633 9.427315 -65.174522 -0.573421 -48.542136 9.509223 -89.019979 84.357053 -77.579388 -1.142650 -9.660364 -4.025600 -0.197354 0.871200 -0.089860 -10.926596 -52.255421 17.436391 -147.047272 83.784769 -154.677709 -0.428467 -13.096228 7.387579 -0.273621 -0.563757 -0.106371
3.882620 50.037185 43.608224 173.706001 -32.477130 -6.886329 6.583923 17.829472 6.689447 0.698923 2.209778 0.588336 1.158226 3.591283 0.974296 5.587678 15.538804 4.880969 -3.146140 15.286364 1.174978 -6.309181 -7.306540 3.344037 -2.281285 -1.428961 -3.667163 4.131649 -4.180164 -0.830355 89.738439 -73.485499 -105.148776 4.801915 -2.052633 13.017606 -10.200697 -0.090342 0.159853 6.071969 -4.992526 -0.596111 -125.275701 -69.657953 137.283954 5.172022 9.185817 -65.521760 -0.590044 -48.526899 9.522712 -89.011913 84.355715 -77.572731 -1.141467 -9.673679 -4.030935 -0.200400 0.884629 -0.086045 -10.930239 -52.242086 17.440017 -147.095107 83.786163 -154.726247 -0.435176 -13.110670 7.373480 -0.278860 -0.549867 -0.090951
3.883621 50.037597 43.608178 173.715148 -32.501371 -6.900629 6.588293 17.876827 6.707327 0.700051 2.218772 0.590158 1.164254 3.645239 0.985503 5.581154 15.543296 4.878054 -3.189956 15.222422 1.124144 -6.373447 -7.397624 3.274291 -2.271890 -1.440087 -3.679773 4.111756 -4.223307 -0.869467 91.240398 -73.304268 -106.588086 4.928231 -2.178370 13.734963 -10.257174 -0.033816 0.184171 6.093290 -5.162404 -0.462803 -126.265286 -69.522007 137.921512 5.770470 8.830526 -65.586421 -0.604841 -48.503011 9.538028 -89.019676 84.357297 -77.580690 -1.135023 -9.677618 -4.034878 -0.182967 0.889247 -0.082799 -10.938416 -52.219281 17.448254 -147.058960 83.778583 -154.693113 -0.425049 -13.120760 7.369472 -0.286904 -0.543797 -0.086833
3.884196 50.036412 43.609348 173.724787 -32.518537 -6.910145 6.592049 17.922828 6.720615 0.700905 2.229255 0.591860 1.165412 3.661708 0.988255 5.574412 15.529507 4.872024 -3.230414 15.225827 1.086537 -6.432986 -7.482150 3.210822 -2.262417 -1.391311 -3.680242 4.087710 -4.218199 -0.954347 92.918483 -73.145933 -108.202109 5.077721 -2.377861 14.379707 -10.306480 0.046251 0.196682 6.078282 -5.285497 -0.334389 -127.301249 -69.361163 138.623156 6.426194 8.381854 -65.358401 -0.611175 -48.490740 9.548852 -89.065850 84.352609 -77.626073 -1.145080 -9.682819 -4.038210 -0.175982 0.893191 -0.076322 -10.948779 -52.205158 17.455020 -147.025651 83.771661 -154.665625 -0.419716 -13.128376 7.367773 -0.287105 -0.543262 -0.096878
3.883734 50.034498 43.610215 173.734191 -32.539237 -6.909758 6.590057 17.960241 6.720915 0.704299 2.259046 0.595857 1.166993 3.680813 0.990976 5.569329 15.592378 4.877796 -3.248733 15.125334 1.057767 -6.508301 -7.530041 3.139538 -2.250251 -1.420724 -3.685486 4.070633 -4.216687 -1.043018 94.567399 -72.970627 -109.785734 5.241825 -2.658881 14.945513 -10.346544 0.027195 0.207170 6.027991 -5.380818 -0.191605 -128.489474 -69.238243 139.491166 7.103202 7.878907 -64.860459 -0.604190 -48.477326 9.550702 -89.137168 84.339403 -77.691413 -1.205738 -9.693646 -4.032221 -0.176064 0.896243 -0.077161 -10.955117 -52.189016 17.450999 -146.990118 83.764155 -154.641333 -0.415299 -13.128730 7.369916 -0.287987 -0.545620 -0.102014
3.884874 50.031574 43.612340 173.751330 -32.555613 -6.920921 6.583029 17.993935 6.727350 0.707654 2.293718 0.601228 1.169775 3.702718 0.993907 5.568115 15.663307 4.882164 -3.294909 15.072056 1.011010 -6.556565 -7.623549 3.093494 -2.242840 -1.458835 -3.686845 4.062985 -4.240763 -1.117856 96.124177 -72.766337 -111.269975 5.409594 -3.009843 15.427283 -10.395819 0.001835 0.215307 5.956665 -5.473028 -0.038308 -129.840856 -69.172976 140.532596 7.795865 7.372097 -64.115872 -0.608098 -48.468146 9.555071 -89.218790 84.330565 -77.767186 -1.222322 -9.698135 -4.028684 -0.199146 0.897251 -0.078511 -11.005534 -52.176785 17.482313 -146.767951 83.742775 -154.444432 -0.389660 -13.115222 7.367565 -0.286585 -0.558164 -0.103869
3.885300 50.028869 43.613252 173.762128 -32.584348 -6.921225 6.586559 18.060929 6.734458 0.707638 2.311295 0.600643 1.173483 3.727055 0.997347 5.568389 15.712695 4.883946 -3.337757 15.049856 0.969996 -6.602078 -7.719132 3.051420 -2.236732 -1.472912 -3.685103 4.053620 -4.271853 -1.192911 97.675252 -72.543495 -112.729715 5.558782 -3.405677 15.812940 -10.457293 0.001506 0.215163 5.872637 -5.563964 0.124557 -131.309564 -69.162420 141.698644 8.524053 6.909595 -63.137990 -0.596580 -48.447253 9.546867 -89.315708 84.321220 -77.859848 -1.230207 -9.706594 -4.021178 -0.193988 0.903360 -0.081533 -11.005263 -52.153050 17.472119 -146.670657 83.732904 -154.355535 -0.376481 -13.117557 7.369643 -0.289009 -0.556097 -0.105241
3.886380 50.025247 43.615670 173.771558 -32.608198 -6.924167 6.597263 18.166134 6.745766 0.705016 2.258104 0.596647 1.181939 3.783080 1.005305 5.570609 15.765390 4.886559 -3.369720 15.010768 0.938946 -6.652477 -7.791871 3.007709 -2.230073 -1.487034 -3.681640 4.037813 -4.307343 -1.273223 99.212119 -72.308544 -114.149973 5.654848 -3.823626 16.083407 -10.528565 0.003893 0.211066 5.775926 -5.655481 0.291980 -132.828792 -69.190395 142.924341 9.313022 6.508723 -61.942356 -0.583633 -48.431292 9.536520 -89.390240 84.319571 -77.929356 -1.216488 -9.716561 -4.009844 -0.210297 0.913958 -0.090380 -11.029624 -52.135708 17.487896 -146.578576 83.719126 -154.284091 -0.368058 -13.107696 7.373526 -0.288610 -0.564489 -0.106341
